<svg id="组_1" data-name="组 1" xmlns="http://www.w3.org/2000/svg" width="29" height="29" viewBox="0 0 29 29">
  <metadata><?xpacket begin="﻿" id="W5M0MpCehiHzreSzNTczkc9d"?>
<x:xmpmeta xmlns:x="adobe:ns:meta/" x:xmptk="Adobe XMP Core 5.6-c138 79.159824, 2016/09/14-01:09:01        ">
   <rdf:RDF xmlns:rdf="http://www.w3.org/1999/02/22-rdf-syntax-ns#">
      <rdf:Description rdf:about=""/>
   </rdf:RDF>
</x:xmpmeta>
                                                                                                    
                                                                                                    
                                                                                                    
                                                                                                    
                                                                                                    
                                                                                                    
                                                                                                    
                                                                                                    
                                                                                                    
                                                                                                    
                                                                                                    
                                                                                                    
                                                                                                    
                                                                                                    
                                                                                                    
                                                                                                    
                                                                                                    
                                                                                                    
                                                                                                    
                                                                                                    
                           
<?xpacket end="w"?></metadata>
<defs>
    <style>
      .cls-1 {
        fill: #eceff8;
        stroke: #5677d6;
        stroke-linejoin: round;
        stroke-opacity: 0.57;
        stroke-width: 1px;
      }

      .cls-2 {
        fill: #5677d6;
        fill-rule: evenodd;
      }
    </style>
  </defs>
  <circle id="椭圆_1_拷贝" data-name="椭圆 1 拷贝" class="cls-1" cx="14.5" cy="14.5" r="14"/>
  <path id="形状_16" data-name="形状 16" class="cls-2" d="M352.4,571.4h9.8v2.8h1.4v-2.8a1.4,1.4,0,0,0-1.4-1.4h-9.8a1.4,1.4,0,0,0-1.4,1.4v10.5a1.4,1.4,0,0,0,1.4,1.4h4.2v-1.4h-4.2V571.4Zm0,0,2.1,2.1a0.7,0.7,0,1,0,0,1.4h5.6a0.7,0.7,0,0,0,0-1.4h-5.6Zm2.1,2.8h-2.1a0.7,0.7,0,1,0,0,1.4h2.1a0.7,0.7,0,0,0,0-1.4h0Zm8.195,6.5-1.078-1.078a3.5,3.5,0,1,0-.994.994l1.078,1.078a0.7,0.7,0,1,0,.994-0.994h0Zm-6.1-3a2.1,2.1,0,1,1,2.1,2.1,2.1,2.1,0,0,1-2.1-2.1h0Zm0,0" transform="translate(-343.5 -562.5)"/>
</svg>
