<svg id="组_2" data-name="组 2" xmlns="http://www.w3.org/2000/svg" width="29" height="29" viewBox="0 0 29 29">
  <metadata><?xpacket begin="﻿" id="W5M0MpCehiHzreSzNTczkc9d"?>
<x:xmpmeta xmlns:x="adobe:ns:meta/" x:xmptk="Adobe XMP Core 5.6-c138 79.159824, 2016/09/14-01:09:01        ">
   <rdf:RDF xmlns:rdf="http://www.w3.org/1999/02/22-rdf-syntax-ns#">
      <rdf:Description rdf:about=""/>
   </rdf:RDF>
</x:xmpmeta>
                                                                                                    
                                                                                                    
                                                                                                    
                                                                                                    
                                                                                                    
                                                                                                    
                                                                                                    
                                                                                                    
                                                                                                    
                                                                                                    
                                                                                                    
                                                                                                    
                                                                                                    
                                                                                                    
                                                                                                    
                                                                                                    
                                                                                                    
                                                                                                    
                                                                                                    
                                                                                                    
                           
<?xpacket end="w"?></metadata>
<defs>
    <style>
      .cls-1 {
        fill: #5677d6;
        stroke: #5677d6;
        stroke-linejoin: round;
        stroke-opacity: 0.57;
        stroke-width: 1px;
      }

      .cls-2 {
        fill: #fff;
        fill-rule: evenodd;
      }
    </style>
  </defs>
  <circle id="椭圆_1_拷贝" data-name="椭圆 1 拷贝" class="cls-1" cx="14.5" cy="14.5" r="14"/>
  <path id="形状_14" data-name="形状 14" class="cls-2" d="M402.707,581.615H390.59a0.609,0.609,0,0,0,0,1.218h12.117a0.61,0.61,0,0,0,0-1.219h0Zm-3.652-10.745,2.971,3.065-4.89,5.046a0.551,0.551,0,0,1-.167.116l-3.864,1.687a0.507,0.507,0,0,1-.577-0.117,0.549,0.549,0,0,1-.112-0.6l1.638-3.984a0.563,0.563,0,0,1,.111-0.173Zm0.5-.511,1.131-1.167a1.159,1.159,0,0,1,1.673,0l1.3,1.342a1.252,1.252,0,0,1,0,1.726l-1.131,1.167Zm0,0" transform="translate(-382.5 -562.5)"/>
</svg>
