<svg id="组_3" data-name="组 3" xmlns="http://www.w3.org/2000/svg" width="29" height="29" viewBox="0 0 29 29">
  <metadata><?xpacket begin="﻿" id="W5M0MpCehiHzreSzNTczkc9d"?>
<x:xmpmeta xmlns:x="adobe:ns:meta/" x:xmptk="Adobe XMP Core 5.6-c138 79.159824, 2016/09/14-01:09:01        ">
   <rdf:RDF xmlns:rdf="http://www.w3.org/1999/02/22-rdf-syntax-ns#">
      <rdf:Description rdf:about=""/>
   </rdf:RDF>
</x:xmpmeta>
                                                                                                    
                                                                                                    
                                                                                                    
                                                                                                    
                                                                                                    
                                                                                                    
                                                                                                    
                                                                                                    
                                                                                                    
                                                                                                    
                                                                                                    
                                                                                                    
                                                                                                    
                                                                                                    
                                                                                                    
                                                                                                    
                                                                                                    
                                                                                                    
                                                                                                    
                                                                                                    
                           
<?xpacket end="w"?></metadata>
<defs>
    <style>
      .cls-1 {
        fill: #fde7da;
        stroke: #f89762;
        stroke-linejoin: round;
        stroke-opacity: 0.57;
        stroke-width: 1px;
      }

      .cls-2 {
        fill: #f89762;
        fill-rule: evenodd;
      }
    </style>
  </defs>
  <circle id="椭圆_1_拷贝_2" data-name="椭圆 1 拷贝 2" class="cls-1" cx="14.5" cy="14.5" r="14"/>
  <path id="形状_10_拷贝_2" data-name="形状 10 拷贝 2" class="cls-2" d="M442.217,572H440a0.859,0.859,0,0,0-.08-0.252l-0.545-1.121a1.222,1.222,0,0,0-1.114-.627h-4.5a1.222,1.222,0,0,0-1.114.627l-0.547,1.121a0.971,0.971,0,0,0-.081.252h-2.24a0.784,0.784,0,0,0-.781.782v0.431a0.784,0.784,0,0,0,.781.782H431v9.223a0.784,0.784,0,0,0,.782.782h8.43a0.784,0.784,0,0,0,.781-0.782v-9.224h1.229a0.784,0.784,0,0,0,.782-0.782V572.78a0.786,0.786,0,0,0-.783-0.78h0Zm-8.176,9.492a0.508,0.508,0,1,1-1.015,0V575.5a0.508,0.508,0,1,1,1.015,0v5.988Zm2.514,0a0.508,0.508,0,1,1-1.015,0V575.5a0.508,0.508,0,1,1,1.015,0v5.988Zm2.5,0a0.508,0.508,0,0,1-1.016,0V575.5a0.508,0.508,0,0,1,1.016,0v5.988Zm0,0" transform="translate(-421.5 -562.5)"/>
</svg>
