<svg id="组_4" data-name="组 4" xmlns="http://www.w3.org/2000/svg" width="29" height="29" viewBox="0 0 29 29">
  <metadata><?xpacket begin="﻿" id="W5M0MpCehiHzreSzNTczkc9d"?>
<x:xmpmeta xmlns:x="adobe:ns:meta/" x:xmptk="Adobe XMP Core 5.6-c138 79.159824, 2016/09/14-01:09:01        ">
   <rdf:RDF xmlns:rdf="http://www.w3.org/1999/02/22-rdf-syntax-ns#">
      <rdf:Description rdf:about=""/>
   </rdf:RDF>
</x:xmpmeta>
                                                                                                    
                                                                                                    
                                                                                                    
                                                                                                    
                                                                                                    
                                                                                                    
                                                                                                    
                                                                                                    
                                                                                                    
                                                                                                    
                                                                                                    
                                                                                                    
                                                                                                    
                                                                                                    
                                                                                                    
                                                                                                    
                                                                                                    
                                                                                                    
                                                                                                    
                                                                                                    
                           
<?xpacket end="w"?></metadata>
<defs>
    <style>
      .cls-1 {
        fill: #f3f3f3;
        stroke: #c7c7c7;
        stroke-linejoin: round;
        stroke-opacity: 0.57;
        stroke-width: 1px;
      }

      .cls-2 {
        fill: #b3b3b3;
        fill-rule: evenodd;
      }
    </style>
  </defs>
  <circle id="椭圆_1_拷贝_3" data-name="椭圆 1 拷贝 3" class="cls-1" cx="14.5" cy="14.5" r="14"/>
  <path id="形状_17" data-name="形状 17" class="cls-2" d="M468.106,577.258L471,580.153a0.363,0.363,0,0,0,.513,0l0.585-.585a0.363,0.363,0,0,0,0-.514l-1.276-1.277h5.816a0.363,0.363,0,0,0,.257-0.107,0.357,0.357,0,0,0,.105-0.257v-0.827a0.361,0.361,0,0,0-.105-0.257,0.366,0.366,0,0,0-.257-0.106h-5.813l1.276-1.277a0.363,0.363,0,0,0,0-.514l-0.585-.585a0.365,0.365,0,0,0-.514,0l-2.31,2.312-0.585.585a0.363,0.363,0,0,0,0,.514h0ZM473.089,584h7.821a1.089,1.089,0,0,0,1.09-1.09V571.09a1.089,1.089,0,0,0-1.09-1.09h-7.821A1.089,1.089,0,0,0,472,571.09v1.534a0.364,0.364,0,0,0,.363.363h0.787a0.364,0.364,0,0,0,.364-0.363V572.04c0-.537,0-0.537.544-0.537h5.9c0.544,0,.544,0,0.544.545v9.917c0,0.546,0,.545-0.544.545h-5.9c-0.545,0-.545,0-0.545-0.538v-0.6a0.364,0.364,0,0,0-.363-0.363h-0.787a0.363,0.363,0,0,0-.363.363v1.539a1.09,1.09,0,0,0,1.089,1.09h0Zm0,0" transform="translate(-461.5 -562.5)"/>
</svg>
