<svg id="组_34" data-name="组 34" xmlns="http://www.w3.org/2000/svg" width="29" height="29" viewBox="0 0 29 29">
  <metadata><?xpacket begin="﻿" id="W5M0MpCehiHzreSzNTczkc9d"?>
<x:xmpmeta xmlns:x="adobe:ns:meta/" x:xmptk="Adobe XMP Core 5.6-c138 79.159824, 2016/09/14-01:09:01        ">
   <rdf:RDF xmlns:rdf="http://www.w3.org/1999/02/22-rdf-syntax-ns#">
      <rdf:Description rdf:about=""/>
   </rdf:RDF>
</x:xmpmeta>
                                                                                                    
                                                                                                    
                                                                                                    
                                                                                                    
                                                                                                    
                                                                                                    
                                                                                                    
                                                                                                    
                                                                                                    
                                                                                                    
                                                                                                    
                                                                                                    
                                                                                                    
                                                                                                    
                                                                                                    
                                                                                                    
                                                                                                    
                                                                                                    
                                                                                                    
                                                                                                    
                           
<?xpacket end="w"?></metadata>
<defs>
    <style>
      .cls-1 {
        fill: #eceff8;
        stroke: #5677d6;
        stroke-linejoin: round;
        stroke-opacity: 0.57;
        stroke-width: 1px;
      }

      .cls-2 {
        fill: #5677d6;
        fill-rule: evenodd;
      }
    </style>
  </defs>
  <circle id="椭圆_1_拷贝" data-name="椭圆 1 拷贝" class="cls-1" cx="14.5" cy="14.5" r="14"/>
  <path id="形状_14" data-name="形状 14" class="cls-2" d="M1706.71,477.615h-12.12a0.609,0.609,0,0,0,0,1.218h12.12a0.61,0.61,0,0,0,0-1.219h0Zm-3.65-10.745,2.97,3.065-4.89,5.046a0.619,0.619,0,0,1-.17.116l-3.86,1.687a0.51,0.51,0,0,1-.58-0.117,0.544,0.544,0,0,1-.11-0.594l1.63-3.985a0.61,0.61,0,0,1,.12-0.173Zm0.49-.511,1.13-1.167a1.156,1.156,0,0,1,1.67,0l1.31,1.342a1.252,1.252,0,0,1-.01,1.726l-1.13,1.168Zm0,0" transform="translate(-1686.5 -458.5)"/>
</svg>
